<?xml version="1.0" encoding="UTF-8"?>
<svg xmlns="http://www.w3.org/2000/svg" viewBox="0 0 2064 2064">
  <defs>
    <style>
      .cls-1 {
        fill: #bb2026;
      }

      .cls-2 {
        fill: #fff;
      }
    </style>
  </defs>
  <g id="Layer_3">
    <rect class="cls-1" y="-1.91" width="2065.91" height="2065.91"/>
  </g>
  <g id="Layer_4">
    <path class="cls-2" d="M1653.08,646.43c-3.1-11.83-4.13-18.15-3.93-30.8.05-3.27.26-6.53.56-9.78.44-4.78-.42.66.58-3.63,1.27-5.48,2.52-10.88,4.51-16.16-.97,2.56,2.21-4.61,2.66-5.44,1.13-2.09,2.37-4.13,3.67-6.12,1.61-2.17,1.84-2.59.7-1.25,1-1.26,2.04-2.48,3.12-3.67,1.63-1.8,3.34-3.58,5.16-5.19,8.14-7.17,19.17-10.34,30.35-13.89,56.06-17.78,114.07-28.08,172.82-30.62,23.1-1,29.56-29.26,11.36-41.93-53.26-37.05-118.37-46.13-180.88-56.14-30.92-4.95-61.95-10.34-91.79-20.05-33.81-11.01-64.66-29.97-100.97-31.83s-69.54,12.68-98.61,31.26-56.56,41.86-81.83,65.82c-24.78,23.49-47.68,48.9-68.62,75.87-10.91,14.05-21.41,28.39-31.26,43.22-9.18,13.81-17.53,28.19-27.25,41.64-17.9,24.77-39.9,36.5-68.9,43.15-30,6.89-60.97,8.32-90.93,15.43-66.32,15.74-110.81,65.42-153.23,115.26-97.79,114.88-205.32,220.89-313.7,325.66-52.67,50.92-104.56,103.23-161.94,148.93-56.47,44.97-120.18,78.38-185.65,108.18-16.51,7.52-33.11,14.85-49.71,22.18-14.97,6.61-14.48,32.08,0,38.86,137.27,64.28,293.87,54.1,435.49,9.89,35.86-11.19,71.05-24.46,105.69-38.96,34.5-14.45,68.05-31.66,103.13-44.65,31.65-11.71,65.29-19.46,98.35-8.93,26.89,8.57,49.9,28.44,69.88,50.85,24.71,27.71,45.56,60.16,65.63,92.67,22.39,36.27,42.66,73.81,60.85,112.36,4.72,10,18.66,13.35,28.1,9.21,9.17-4.03,17.44-16.08,13.03-26.54-18.91-44.88-50.33-84.7-96.72-102.95-46.73-18.38-98.66-1.72-128.55,37.91-16.25,21.56-22.56,49.67-14.79,75.77,7.25,24.38,43.57,19.58,44.2-5.98.02-.97.61-7.7.32-5.86s1.17-4.68,1.42-5.55c.6-2.07,1.27-4.16,2.11-6.15-1.64,3.89,1.33-2.28,1.43-2.45,4.41-8.05,7.68-11.74,16.16-18.95,3.57-3.03-1.05.37,2.63-1.91,2.25-1.39,4.42-2.89,6.73-4.21s4.68-2.5,7.07-3.69c3.94-1.97-1.5.25,3.06-1.26,4.72-1.57,9.38-3.05,14.27-4.06,1.11-.24,2.23-.45,3.36-.64-2.23.23-1.97.2.78-.09,2.26-.18,4.52-.35,6.79-.39,19.95-.37,39.03,6.57,56.86,17.51s34.49,26.86,49.06,44.17c6.34,7.53,19.19,8.24,27.27,3.52,9.36-5.48,11.72-15.37,10.34-25.41.44,3.19.15-.7.13-1.98-.03-1.9.06-3.78.18-5.67-.15,2.43-.19.69.13-.76.4-1.86.82-3.69,1.34-5.52s1.11-3.63,1.8-5.4c-.89,2.24-.02.07.5-.88,1.82-3.35,3.64-6.71,5.95-9.75-1.77,2.33.88-.9,1.56-1.64,1.03-1.12,2.1-2.21,3.2-3.27,1.37-1.31,2.76-2.63,4.28-3.77-2.35,1.77,1.06-.55,1.93-1.1,1.61-1.01,3.27-1.89,4.94-2.8,1.01-.55,3.09-1.31.86-.46,3.48-1.33,7.3-2.43,11.01-2.89-2.5.31-.46.12.84.16,1.9.05,3.78,0,5.68.1,3.82.17-4.73-1.24,1.89.21,1.48.32,2.96.64,4.42,1.03,1.83.5,3.63,1.09,5.42,1.74,1.46.55,1.43.52-.11-.09l2.06,1c3.02,1.66,5.99,3.32,8.81,5.31,1.25.89,1.25.88,0-.04l1.73,1.49c1.37,1.33,2.78,2.59,4.1,3.98s2.63,2.78,3.77,4.28c-1.44-1.9.02.15.49.97.93,1.65,1.98,3.22,2.86,4.9.31.59,2.13,4.98.98,1.87,1.32,3.58,2.21,7.26,2.87,11.01,13.71-5.78,27.42-11.56,41.12-17.34-25.68-35-71.94-56.39-114.14-38.18-17.65,7.62-32.54,22.2-40.49,39.74-9.36,20.64-9.5,41.24-.7,62.03,4.73,11.19,21.26,13.64,30.78,8.07,11.59-6.78,12.83-19.55,8.07-30.78,1.36,3.21-.67-3.55-.89-4.83.7,4.03.17-3.8.25-5.59.16-3.5-.75,3.11.07-.32.33-1.39.62-2.78,1.01-4.15s.84-2.73,1.34-4.08c1.22-3.33-1.39,2.56.31-.57,1.56-2.88,3.1-5.74,5.07-8.38-1.43,1.91-.3.35.59-.55,1.03-1.03,1.98-2.13,3.04-3.15s2.12-2,3.25-2.91c-1.85,1.49-.41.28.7-.37,1.24-.72,2.54-1.45,3.73-2.24,3.17-2.09-.49-.11,1.55-.88,11.75-4.42,19.92-3.61,31.99.66,8.42,2.98,20.29,11.94,25.62,19.2,15.18,20.69,45.68,8.45,41.12-17.34-8.1-45.86-56.15-77.02-101.15-69.34-22.43,3.83-41.69,18.38-54.66,36.6-13.63,19.15-17.72,41.7-14.57,64.63,12.54-7.3,25.07-14.59,37.61-21.89-34.74-41.28-87.61-79.88-144.53-74.47-52.59,5-102.95,43.87-104.32,99.8,14.73-1.99,29.46-3.99,44.2-5.98-.24-.82-2.15-9.32-1.55-5.1-.36-2.57-.22-5.13-.3-7.71.02-1.09.07-2.19.17-3.28-.4,2.37-.36,2.2.11-.5.67-2.86,1.46-5.62,2.29-8.44,1.23-4.22-1.15,1.46,1.15-2.77,1.43-2.63,2.81-5.25,4.44-7.77,2.55-3.91,3.41-4.96,8.06-9.55s6.11-5.64,9.96-8.15c2.62-1.71,5.33-3.29,8.1-4.72.59-.31,6.39-2.94,3.16-1.61,5.05-2.08,10.35-3.43,15.69-4.52,2.75-.46,3.06-.52.92-.17,1.54-.15,3.08-.25,4.63-.3,2.71-.09,5.42-.02,8.12.19,1.2.08,2.39.2,3.58.35-1.99-.22-1.6-.11,1.17.32,3.11.74,6.22,1.37,9.29,2.28,2.29.68,4.52,1.47,6.77,2.26,2.55,1,2.95,1.15,1.22.44,1.45.65,2.88,1.33,4.3,2.04,10.45,5.25,17.51,10.29,24.93,17.13,8.4,7.74,15.09,15.51,20.54,23.44,3.28,4.77,6.33,9.7,9.15,14.76,1.6,2.88,3.13,5.8,4.59,8.76.72,1.47,1.43,2.95,2.11,4.44,1.1,2.54,1.32,2.99.67,1.35,13.71-5.78,27.42-11.56,41.12-17.34-31.92-67.62-69.93-133.6-115.85-192.74-20.31-26.16-43.58-50.64-72.16-67.87-31.65-19.09-67.76-25.8-104.25-20.82-38.93,5.31-74.81,21.97-110.24,38.09-33.85,15.4-68.07,29.92-103,42.7-69.65,25.5-142.42,44.96-216.4,49.88-79.38,5.29-160.66-4.64-233.27-38.64v38.86c66.21-29.25,132.89-58.73,193.08-99.37,60.16-40.63,113.23-90.44,165.37-140.67,107.35-103.41,214.95-206.89,314.49-317.96,23.54-26.27,46.08-53.38,69.39-79.85,20.46-23.24,41.75-45.49,67.88-60.87,51.81-30.49,118.93-19.99,174.02-46.17,31.48-14.96,51.93-42.63,70.13-71.29s36.11-54.23,57.33-79.14c21.83-25.61,45.61-49.56,71.06-71.57,24.31-21.03,50.59-42.36,80.53-54.89,12.76-5.34,26.66-8.77,40.04-8.82,16.18-.06,31.75,5.34,47.08,11.53s29.65,12.84,45,17.98,30.81,9.02,46.51,12.32c59.07,12.42,124.78,15.74,179.07,38.57,13.69,5.75,26.7,13.14,38.87,21.61,3.79-13.98,7.57-27.95,11.36-41.93-66.68,2.88-135.47,13.7-198.34,36.76-30.48,11.18-52.18,31.87-63.54,62.45-9.94,26.73-8.86,57.05-1.71,84.29,3.08,11.75,16.06,18.91,27.68,15.71s18.81-15.88,15.71-27.68h0Z"/>
    <path class="cls-2" d="M1281.76,1767.3c.37-.5.74-1,1.12-1.5l-3.52,4.55c2.99-3.84,6.41-7.31,10.25-10.3l-4.55,3.52c4.04-3.11,8.45-5.65,13.14-7.65l-5.37,2.27c6.46-2.72,13.3-4.38,20.24-5.33l-5.98.8c12.77-1.7,25.75-1.1,38.53.23,3.76.39,7.51.85,11.26,1.36l-5.98-.8c12.62,1.7,25.3,3.72,37.47,7.55,3.22,1.01,6.39,2.16,9.5,3.48l-5.37-2.27c5.78,2.46,11.29,5.51,16.29,9.33l-4.55-3.52c3.96,3.07,7.53,6.6,10.61,10.56l-3.52-4.55c3.21,4.18,5.82,8.75,7.89,13.59l-2.27-5.37c.42,1,.82,2,1.2,3.01.7,2.93,2.04,5.48,4.03,7.65,1.59,2.45,3.69,4.38,6.31,5.8,2.58,1.64,5.37,2.53,8.37,2.67,2.99.67,5.98.54,8.97-.4,5.44-1.76,10.7-5.14,13.45-10.34l2.27-5.37c1.07-3.99,1.07-7.98,0-11.96-1.84-4.92-3.87-9.85-6.41-14.45s-5.47-8.27-8.56-12.21c-4.89-6.24-11.07-11.26-17.56-15.78s-13.97-7.76-21.4-10.69c-6.06-2.39-12.35-4.18-18.7-5.63-6.8-1.55-13.68-2.71-20.57-3.72-9.1-1.32-18.23-2.57-27.4-3.37-7.21-.63-14.46-.97-21.69-.75-3.47.11-6.94.34-10.39.75-5.29.62-10.61,1.29-15.81,2.48-3.22.74-6.4,1.66-9.49,2.82-4.8,1.79-9.62,3.78-14.1,6.3s-8.48,5.65-12.44,8.84c-2.7,2.18-5.2,4.61-7.47,7.24s-4.5,5.58-6.61,8.47c-1.64,2.58-2.53,5.37-2.67,8.37-.67,2.99-.54,5.98.4,8.97.7,2.93,2.04,5.48,4.03,7.65,1.59,2.45,3.69,4.38,6.31,5.8,5.22,2.76,11.55,4.14,17.34,2.27l5.37-2.27c3.38-2,6.07-4.69,8.07-8.07h0Z"/>
    <path class="cls-2" d="M1611.13,665.69c13.18,34.43,27.18,68.54,39.24,103.39,6.18,17.85,11.88,35.88,16.64,54.17,2.36,9.07,4.5,18.21,6.32,27.41.84,4.23,1.61,8.47,2.3,12.73.32,1.97.61,3.94.91,5.9.64,4.17.01-.29-.11-.94.25,1.38.35,2.79.52,4.18,1.98,16.92,2.6,34.07.94,51.04-.1,1.04-.23,2.07-.33,3.11-.41,4.21.28-.97.21-1.35.32,1.78-.76,4.88-1.06,6.66-.91,5.38-1.84,10.75-2.81,16.11-1.81,10.06-3.71,20.11-5.77,30.13-3.52,17.19-7.46,34.31-12.29,51.19-2.04,7.14-4.25,14.24-6.69,21.26-1.16,3.34-2.38,6.67-3.67,9.97-.54,1.39-1.1,2.76-1.65,4.14-.31.76-1.44,3.42-.15.39,1.49-3.51-.43,1-.75,1.73-14.41,33.62-30.27,66.98-51.12,97.15-2.43,3.51-4.94,8.38-8.13,11.22.48-.43,2.97-3.74.36-.48-.54.67-1.07,1.34-1.61,2.01-1.61,1.99-3.24,3.96-4.91,5.91-6.04,7.04-12.53,13.62-19.33,19.93-15.42,14.33-31.45,27.91-47.95,40.98-2.66,2.11,2.75-2.07.06-.04-.75.57-1.5,1.14-2.25,1.71-1.98,1.5-3.97,3-5.98,4.48-3.93,2.91-7.9,5.77-11.9,8.58-7.73,5.43-15.6,10.67-23.6,15.7-14.83,9.31-30.13,17.88-45.88,25.54-3.59,1.75-7.2,3.44-10.84,5.09-1.92.87-3.84,1.73-5.77,2.57-.93.41-2.01.75-2.88,1.25,2.14-1.21,3.21-1.34.33-.15-7.35,3.04-14.78,5.87-22.29,8.5-15.05,5.26-30.4,9.67-45.95,13.21-7.64,1.74-15.32,3.27-23.04,4.6-3.36.58-6.73,1.12-10.11,1.63-1.9.28-3.93.37-5.79.83,6.63-1.63-.21,0-1.99.22-19.63,2.35-39.54,3.88-59.3,2.35-2.4-.19-5.34-.12-7.66-.75.75.2,4.68.76.27.01-1.26-.21-2.52-.41-3.78-.64-5.03-.92-10.01-2.1-14.91-3.57-2.46-.74-4.89-1.55-7.3-2.44-.84-.31-1.67-.67-2.52-.97-2.89-1.02,3.88,1.83,1.13.46-3.94-1.96-7.86-3.86-11.61-6.18-1.54-.95-3.06-1.95-4.54-2.99-.85-.59-1.68-1.22-2.52-1.81-2.02-1.42,1.44,1.08,1.48,1.15-.76-1.42-3.5-2.93-4.7-4.03-1.71-1.56-3.36-3.19-4.95-4.87-1.23-1.31-2.39-2.67-3.57-4.01-2.59-2.94.42.41.67.96-.35-.79-1.26-1.72-1.78-2.47-2.44-3.52-4.62-7.22-6.46-11.1-2.21-4.65.91,2.93-.34-.86-.63-1.91-1.28-3.79-1.8-5.73-.45-1.67-.45-4.41-1.28-5.89,0,.02.47,4.76.28,2.23-.09-1.27-.23-2.53-.3-3.8l-6.59,15.91c-.18.18,2.09-2.04,2.12-2,.21.24-4.77,3.05-1.18.94,1.37-.8,2.89-1.53,4.21-2.39,1.9-1.24-2,1.08-2.22.94.11.07,2.23-.73,2.61-.84.88-.25,1.79-.41,2.68-.65,3.16-.88-1.09.54-1.86.16.92.45,4.55-.28,5.66-.27,1.7.02,3.37.22,5.07.28,2.48.1-2.32-.34-2.32-.34.82.31,2.05.35,2.94.53,1.98.4,3.95.88,5.9,1.43s3.93,1.19,5.86,1.88c.82.29,6.35,2.36,3.08,1.16-3-1.1,1.96.98,2.94,1.47,1.83.92,3.64,1.89,5.42,2.9,3.39,1.93,6.66,4.07,9.88,6.27,1.61,1.1,3.2,2.22,4.78,3.36,1.11.8,4.88,2.64,5.36,3.97-.55-1.52-2.83-2.26-.61-.45.86.7,1.73,1.38,2.6,2.08,1.51,1.22,3,2.47,4.47,3.72,3.16,2.69,6.27,5.46,9.3,8.3,6.08,5.68,11.89,11.63,17.45,17.81,2.78,3.1,5.5,6.26,8.15,9.47,1.24,1.5,2.46,3.01,3.67,4.53.63.8,1.61,1.76,2.06,2.62-.71-1.35-2.11-2.78-.47-.57,4.99,6.73,9.8,13.56,14.33,20.61,9.09,14.16,17.16,28.96,24.29,44.19,1.79,3.81,3.51,7.65,5.18,11.52.29.67.89,1.6,1,2.32-.54-3.68-1-2.41-.32-.72.83,2.08,1.69,4.16,2.51,6.24,3.15,8.02,6.07,16.12,8.77,24.3,12.6,38.19,20.59,77.74,26.49,117.47.44,2.99.88,5.98,1.3,8.97.14,1,.28,2,.42,2.99-.01-.08.81,5.99.41,3s.17,1.34.26,2.01c.22,1.67.43,3.33.65,5,.34,2.67.67,5.33,1,8,1.39,11.34,2.68,22.69,3.93,34.05,1.19,10.86,2.49,21.73,3.45,32.62.47,5.41.8,10.85.61,16.29-.04,1.27-.14,2.53-.21,3.8-.14,2.69.36,1.41.14-.34.33,2.56-1.51,6.87-2.26,9.19-3.59,11.22,4.2,25.05,15.71,27.68,12.3,2.8,23.84-3.71,27.68-15.71,5.37-16.81,4.09-34.26,2.25-51.49-1.75-16.36-3.51-32.73-5.46-49.07-4.09-34.3-8.83-68.59-15.97-102.41-12.37-58.59-32.49-116.64-65.74-166.83-15.75-23.77-34.18-46.11-55.63-64.95-21.06-18.5-45.88-37.31-74.17-42.37-16.02-2.87-31.61-2.14-46.38,5.3-9.93,5-20.25,14.18-20.24,26.09,0,7.85,1.69,16.29,4.21,23.74,9.41,27.76,31.08,50.9,57.42,63.54,30.6,14.69,64.91,17.22,98.35,14.69,26.6-2.01,53.22-5.98,79.15-12.26,51.75-12.53,101.07-34.89,145.63-63.89,26.89-17.51,52.35-37.33,76.47-58.47,11.38-9.97,22.77-20.08,32.87-31.36,10.46-11.67,19.95-24.31,28.59-37.38,15.8-23.92,28.7-49.66,40.4-75.8,10.52-23.51,19.84-47.07,26.52-71.98,7.69-28.69,13.26-57.94,18.25-87.21,5.1-29.9,4.54-58.73.17-88.68-8.38-57.45-29.8-112.32-50.82-166.1-4.88-12.49-9.8-24.97-14.59-37.49-4.19-10.96-15.34-19.71-27.68-15.71-10.68,3.46-20.22,15.91-15.71,27.68h0Z"/>
    <path class="cls-2" d="M1157.4,712.68c40.88-4.59,81.76-9.18,122.64-13.76,39.92-4.48,79.81-9.44,119.78-13.39,17.43-1.73,35.08-2.61,52.5-.29l-5.98-.8c8.23,1.17,15.94,3.31,23.76,6.03-7.32-2.55-.78-.3,1.09.66s3.52,1.89,5.22,2.94c.77.48,1.53.98,2.29,1.49s4.12,3.05.83.49-.4-.29.3.31c.85.72,1.68,1.46,2.49,2.23,1.4,1.32,2.74,2.7,4.02,4.14.55.62,1.09,1.25,1.62,1.9l-1.98-2.6c.8.74,1.55,2.13,2.16,3.03,2.47,3.66,5.01,7.78,6.49,11.96-.52-1.47-1.91-4.73-.64-1.33.36.98.71,1.96,1.05,2.94.73,2.18,1.38,4.39,1.96,6.62,1.22,4.69,2.09,9.46,2.76,14.26l-.8-5.98c2.05,15.89,1.66,32.01-.46,47.87l.8-5.98c-1.64,11.67-4.23,23.18-7.76,34.43-1.71,5.44-3.63,10.81-5.74,16.1-.24.59-.48,1.18-.71,1.77-1.37,3.44.71-1.6.8-1.86-.39,1.19-1.02,2.35-1.53,3.49-1.3,2.9-2.65,5.78-4.06,8.63-5.19,10.49-11.13,20.61-17.7,30.29-1.68,2.47-3.4,4.91-5.16,7.32-.75,1.03-1.52,2.06-2.29,3.08-.38.51-.78,1.02-1.16,1.53-1.66,2.2,3.21-4.06.77-1.02-3.73,4.66-7.55,9.24-11.55,13.67-7.97,8.83-16.52,17.11-25.52,24.89-2.16,1.87-4.34,3.71-6.55,5.52-1.19.97-2.39,1.94-3.59,2.9-.52.41-1.03.82-1.55,1.23-3.09,2.46,3.12-2.36.91-.7-4.74,3.57-9.51,7.07-14.4,10.42-20.18,13.84-41.74,25.58-64.02,35.66-3.02,1.37-6.06,2.69-9.11,4.01-3.45,1.49,1.39-.57,1.71-.71-.81.36-1.63.68-2.45,1.02-1.64.68-3.28,1.35-4.92,2.01-6.36,2.56-12.78,5-19.23,7.33-11.67,4.22-23.7,9.13-36.05,10.9l5.98-.8c-3.93.5-7.85.65-11.79.22l5.98.8c-1.68-.23-3.28-.62-4.92-1.04-3.54-.9,2.22.62,2.53,1.16-.02-.04-2.17-1.26-2.21-1.26.47-.06,4.81,4.24,2.28,1.66s1.74,1.94,1.62,2.26c-.25-.36-.47-.74-.68-1.13-.84-1.56-.4-.46,1.31,3.3.02-1.12-.74-2.65-.92-3.79l.8,5.98c-.2-2.22-.11-4.33.18-6.54l-.8,5.98c1.18-7.07,3.51-13.99,5.55-20.86,2.15-7.23,4.4-14.42,6.75-21.58,4.7-14.33,9.83-28.51,15.32-42.55,1.78-4.54.66-10.41-1.13-14.65s-4.94-8.51-9.21-10.76c-3.53-1.87-7.36-2.89-11.36-3.07-4.99-.22-12.7,2.55-15.91,6.59-20.71,26.04-41.93,51.8-65.7,75.14-5.9,5.79-11.96,11.43-18.2,16.85-2.87,2.49-5.77,4.94-8.71,7.33-1.54,1.25-3.1,2.49-4.66,3.72-3.54,2.79,4.4-3.3.79-.62-.95.71-1.89,1.43-2.85,2.13-12.84,9.48-26.47,17.92-40.95,24.67-.7.33-1.4.65-2.1.96-.75.34-5.56,2.41-1.54.72s.19-.09-.51.19c-1.07.43-2.14.85-3.22,1.27-4.31,1.65-8.69,3.14-13.11,4.46-8.58,2.56-17.34,4.42-26.21,5.64l5.98-.8c-10.85,1.41-21.69,1.7-32.56.35l5.98.8c-6.77-.91-13.45-2.38-19.89-4.66-.86-.3-1.7-.63-2.55-.95-2.88-1.08,2.05.97,2.37,1.02-1.4-.21-3.09-1.43-4.37-2.09-3-1.56-5.83-3.35-8.59-5.3-2.51-1.77,1.82,1.53,2.05,1.59-.65-.15-1.53-1.28-2.01-1.71-1.18-1.05-2.32-2.15-3.41-3.3-.83-.88-4.23-5.05-1.69-1.74s-.68-1.08-1.33-2.1c-.99-1.57-1.89-3.19-2.7-4.86-.25-.5-.53-1.67-.94-2.03.7.62,2.14,5.44.85,1.75-1.15-3.31-1.94-6.7-2.47-10.16l.8,5.98c-.79-5.91-.72-11.79.07-17.7l-.8,5.98c.84-5.63,2.27-11.13,4.3-16.46.27-.72.56-1.43.85-2.14l-1.36,3.26c.29-1.37,1.36-2.92,2-4.17,1.23-2.4,2.58-4.75,4.03-7.03.83-1.3,1.69-2.58,2.58-3.84.45-.63.9-1.25,1.37-1.86l-2.11,2.73c1.49-2.51,4.05-4.8,6.08-6.87s4.2-4.03,6.41-5.92c.94-.8,2.14-1.53,2.98-2.45-2.87,2.2-3.37,2.59-1.5,1.17.69-.51,1.38-1.01,2.07-1.51,4.88-3.47,10.01-6.6,15.28-9.44,2.84-1.53,5.73-2.98,8.65-4.36,1.37-.65,2.74-1.28,4.12-1.9s7.31-2.94.59-.3c11.75-4.6,23.56-8.85,35.54-12.83l-25.41-33.05c-4.12,5.92-8.31,11.78-12.58,17.59-2.14,2.9-4.29,5.79-6.46,8.67-1.02,1.35-2.05,2.7-3.08,4.05-.93,1.22-3.12,3.87.8-1.03-.66.83-1.3,1.67-1.95,2.51-8.87,11.36-18.05,22.49-27.51,33.36-19.06,21.91-39.28,42.82-60.54,62.61-10.55,9.82-21.36,19.37-32.41,28.64-5.69,4.77-11.44,9.46-17.25,14.07-1.33,1.05-2.66,2.11-3.99,3.15-.6.47-5.46,4.24-2.24,1.76,2.81-2.17.46-.36-.24.18-.84.65-1.68,1.29-2.53,1.93-1.52,1.16-3.04,2.31-4.57,3.45-23.23,17.43-47.38,33.64-72.32,48.53-28.03,16.75-57.06,31.79-86.89,45.08-4.82,2.15-9,8.58-10.34,13.45-1.48,5.39-.81,12.56,2.27,17.34s7.71,9.03,13.45,10.34c6.26,1.43,11.51.33,17.34-2.27,53.66-23.9,104.69-53.56,152.05-88.3,48.59-35.64,93.64-75.95,133.73-120.97,22.98-25.8,44.38-53.07,64.12-81.42,5.1-7.33,3.34-18.39-1.76-24.99s-15.11-10.91-23.65-8.06c-40.78,13.57-83.73,29.47-108.34,67.08-10.98,16.78-17.96,38.47-16.23,58.65.99,11.57,3.72,22.2,9.3,32.45s13.44,18.1,22.52,24.98c31.51,23.91,76.5,22.81,112.85,12.74,37.45-10.37,70.48-31.75,99.61-56.98,31.6-27.37,58.41-59.76,84.36-92.39-12.54-7.3-25.07-14.59-37.61-21.89-6.68,17.08-12.81,34.38-18.32,51.88-2.71,8.6-5.31,17.24-7.68,25.93-3.34,12.23-4.13,25.05,2.13,36.52,8.76,16.06,27.98,22.05,45.26,20.11,16.04-1.79,31.08-7.43,46.15-12.97,62.12-22.83,122.78-55.79,167.16-105.91,43.27-48.86,72.93-114.09,68.1-180.45-1.35-18.51-5.14-36.5-13.75-53.07-7.86-15.13-20.71-28.13-35.73-36.22-27.31-14.71-59.49-15.64-89.71-13.03-35.97,3.1-71.86,7.9-107.73,11.93-37.52,4.21-75.03,8.42-112.55,12.63-9.31,1.05-18.63,2.09-27.94,3.14-6.15.69-11.37,2.05-15.91,6.59-3.9,3.9-6.84,10.31-6.59,15.91s2.17,11.85,6.59,15.91c4.11,3.78,10.1,7.24,15.91,6.59h0Z"/>
    <path class="cls-2" d="M1119.05,1584.7c-.47,1.49-.81,3.01-1.04,4.56-.5,3.38-1.12,6.85-1.06,10.29s.64,6.91,1.19,10.29c.25,1.54.62,3.06,1.09,4.55,1.03,3.23,2.42,6.37,3.87,9.42.67,1.41,1.44,2.78,2.3,4.08,1.85,2.8,3.94,5.48,6.16,8.01,1.03,1.17,2.14,2.26,3.33,3.26,2.7,2.26,5.55,4.6,8.64,6.37s6.55,3.15,9.93,4.35l5.98.8c3.1.12,5.99-.53,8.67-1.94,1.91-.53,3.56-1.5,4.96-2.89,2.45-1.59,4.38-3.69,5.8-6.31,1.8-2.68,2.97-5.89,4.07-8.86s1.35-6.55,1.72-9.73c.16-1.39.2-2.77.07-4.17-.29-3.27-.63-6.66-1.51-9.85s-2.27-6.17-3.66-9.09c-.61-1.29-1.34-2.52-2.17-3.67-1.85-2.56-3.79-5.31-6.1-7.53-.49-.47-1-.9-1.53-1.33-1.96-1.58-3.94-3.24-6.08-4.6-.64-.41-1.31-.78-2-1.11-2.35-1.11-4.77-2.19-7.23-3.02-3.35-1.12-7.06-1.48-10.55-1.63-3.1-.12-5.99.53-8.67,1.94-2.79.91-5.2,2.46-7.24,4.65-2.19,2.04-3.74,4.45-4.65,7.24-1.41,2.68-2.05,5.57-1.94,8.67.26,5.82,2.17,11.85,6.59,15.91l4.55,3.52c3.51,2.04,7.29,3.06,11.36,3.07.49.02.98.06,1.47.12l-5.98-.8c1.44.2,2.82.57,4.17,1.11l-5.37-2.27c1.51.64,2.9,1.46,4.2,2.45l-4.55-3.52c1.46,1.14,2.74,2.46,3.87,3.92l-3.52-4.55c1.19,1.57,2.16,3.27,2.94,5.08l-2.27-5.37c.75,1.81,1.28,3.69,1.56,5.63l-.8-5.98c.23,1.72.25,3.45.04,5.17l.8-5.98c-.21,1.52-.6,3-1.18,4.42l2.27-5.37c-.43.99-.94,1.92-1.54,2.82l25.41-10.34c-.53-.19-1.05-.39-1.57-.6l5.37,2.27c-2.26-.96-4.35-2.21-6.29-3.71l4.55,3.52c-2.01-1.59-3.81-3.41-5.38-5.43l3.52,4.55c-1.7-2.23-3.11-4.64-4.22-7.21l2.27,5.37c-1.12-2.68-1.9-5.48-2.29-8.36l.8,5.98c-.32-2.54-.32-5.09,0-7.63l-.8,5.98c.22-1.55.56-3.06,1.04-4.56.94-2.99,1.07-5.98.4-8.97-.14-2.99-1.03-5.78-2.67-8.37-1.41-2.62-3.35-4.73-5.8-6.31-2.17-1.99-4.72-3.33-7.65-4.03l-5.98-.8c-4.06.01-7.85,1.04-11.36,3.07l-4.55,3.52c-2.79,2.81-4.72,6.12-5.79,9.93h0Z"/>
    <path class="cls-2" d="M1371.62,1746.49c1.66-1.36,3.33-2.69,5.02-4l-4.55,3.52c14.48-11.16,30.37-20.41,47.21-27.55l-5.37,2.27c14.67-6.18,30.24-11.18,46.05-13.35l-5.98.8c7.87-1.05,15.87-1.34,23.76-.31l-5.98-.8c4.89.66,9.69,1.84,14.25,3.73l-5.37-2.27c3.4,1.44,6.6,3.25,9.53,5.49l-4.55-3.52c1.95,1.51,3.75,3.19,5.39,5.03,2.04,2.19,4.45,3.74,7.24,4.65,2.68,1.41,5.57,2.05,8.67,1.94,3.1.12,5.99-.53,8.67-1.94,2.79-.91,5.2-2.46,7.24-4.65,3.94-4.29,6.86-9.92,6.59-15.91l-.8-5.98c-1.07-3.81-3-7.12-5.79-9.93-1.65-1.84-3.45-3.51-5.39-5.03-3.35-2.62-6.59-5.25-10.35-7.24-5.76-3.06-12.05-5.55-18.45-6.92-4.29-.92-8.69-1.46-13.04-1.9-2.54-.26-5.09-.38-7.63-.39-6.96-.03-13.81.88-20.69,1.86-11.14,1.58-22.13,4.68-32.74,8.39-12.85,4.5-25.47,9.99-37.41,16.53-13.29,7.28-25.62,16.06-37.32,25.66-2.19,2.04-3.74,4.45-4.65,7.24-1.41,2.68-2.05,5.57-1.94,8.67-.12,3.1.53,5.99,1.94,8.67.91,2.79,2.46,5.2,4.65,7.24,4.29,3.94,9.92,6.86,15.91,6.59l5.98-.8c3.81-1.07,7.12-3,9.93-5.79h0Z"/>
  </g>
</svg>